<?xml version="1.0" encoding="UTF-8"?>
<svg version="1.1" xmlns="http://www.w3.org/2000/svg" width="1275" height="368">
<path d="M0 0 C420.75 0 841.5 0 1275 0 C1275 121.44 1275 242.88 1275 368 C854.25 368 433.5 368 0 368 C0 246.56 0 125.12 0 0 Z " fill="#FEFEFE" transform="translate(0,0)"/>
<path d="M0 0 C7.01683054 1.86463122 13.96165857 3.87283989 20.87109375 6.1015625 C21.80159042 6.39962799 22.7320871 6.69769348 23.69078064 7.00479126 C26.79481081 8.00024302 29.89752822 8.9997024 33 10 C34.66497528 10.53627014 34.66497528 10.53627014 36.36358643 11.08337402 C46.18182097 14.24631607 55.9985116 17.41406175 65.81323242 20.58789062 C80.65335407 25.38571542 95.5118461 30.11209627 110.4133606 34.71588135 C122.44774064 38.43736082 134.44467418 42.27208837 146.4375 46.125 C150.60272383 47.46137645 154.76816989 48.79705967 158.93359375 50.1328125 C159.95114746 50.45926254 160.96870117 50.78571259 162.01708984 51.12205505 C169.5516559 53.53844176 177.09054987 55.94099567 184.63130188 58.33799744 C194.8786221 61.59584252 205.12119942 64.86848896 215.36279297 68.14428711 C217.55539855 68.84545487 219.74810858 69.54629606 221.94091797 70.24682617 C225.18219659 71.28232108 228.42316226 72.31879028 231.6640625 73.35546875 C232.62680084 73.6628447 233.58953918 73.97022064 234.58145142 74.28691101 C240.52865602 76.19076553 246.45101213 78.15580843 252.35848999 80.17988586 C255.59381809 81.18436372 258.63295849 81.69390532 262 82 C262 86 262 86 259.83984375 88.515625 C258.40318359 89.86914062 258.40318359 89.86914062 256.9375 91.25 C255.91733404 92.22845338 254.89910517 93.20893039 253.8828125 94.19140625 C253.38555664 94.66980957 252.88830078 95.14821289 252.37597656 95.64111328 C250.58702947 97.40784137 248.94207328 99.27369882 247.3125 101.1875 C244.36394699 104.6427256 241.20404839 107.81447543 237.96875 111 C236.06013545 112.93891002 234.27289448 114.93699551 232.5 117 C230.10323412 119.78896393 227.62040609 122.41990785 225 125 C222.4207494 127.53972186 219.97782611 130.12451314 217.625 132.875 C214.88378551 136.06682509 211.99314112 139.04302977 209 142 C206.04816975 144.91626603 203.19611141 147.84605835 200.5 151 C197.02373746 155.06657127 193.23964826 158.77919138 189.4296875 162.53125 C186.64290008 165.36284108 184.08021819 168.3287777 181.5703125 171.40625 C179.84534993 173.15695828 178.20563487 173.95579186 176 175 C175.26608032 174.26385971 174.53216064 173.52771942 173.77600098 172.76927185 C166.83512594 165.8080625 159.89156432 158.84954279 152.94541168 151.89359951 C149.37502854 148.3180136 145.80557505 144.74151011 142.23828125 141.1628418 C138.79105433 137.70469299 135.3413398 134.24904336 131.88993835 130.79506111 C130.57826656 129.48155176 129.26747033 128.16716744 127.95759583 126.85186577 C126.11276348 124.99969931 124.26474831 123.15076254 122.41601562 121.30249023 C121.88373352 120.76661285 121.35145142 120.23073547 120.80303955 119.67861938 C117.9955273 116.87858879 115.12108864 114.20956933 112.11828613 111.61927795 C107.78192804 107.86180107 103.7328484 103.85928674 99.69140625 99.7890625 C98.90329559 98.99949158 98.11518494 98.20992065 97.30319214 97.39642334 C95.60521232 95.69466035 93.90838791 93.99174387 92.21261597 92.28778076 C89.52378232 89.58609729 86.83176186 86.88762547 84.13891602 84.18994141 C77.9384234 77.9770962 71.74261082 71.75959479 65.54704285 65.5418396 C59.40931801 59.38224846 53.26958158 53.22468022 47.12643433 47.07049561 C44.48334454 44.42095641 41.84330174 41.76840705 39.20336914 39.11572266 C37.57192667 37.48064527 35.94034229 35.84570945 34.30859375 34.2109375 C33.22044876 33.11504303 33.22044876 33.11504303 32.11032104 31.99700928 C28.10653615 27.99281496 24.00536819 24.16812937 19.70795441 20.48000145 C17.47529538 18.54532533 15.37148404 16.50098621 13.28125 14.4140625 C12.49492187 13.62902344 11.70859375 12.84398437 10.8984375 12.03515625 C9.71121094 10.84212891 9.71121094 10.84212891 8.5 9.625 C7.67757813 8.80644531 6.85515625 7.98789063 6.0078125 7.14453125 C5.23179687 6.36722656 4.45578125 5.58992187 3.65625 4.7890625 C2.95306641 4.08475098 2.24988281 3.38043945 1.52539062 2.65478516 C0 1 0 1 0 0 Z " fill="#30B2AF" transform="translate(0,1)"/>
<path d="M0 0 C2.60236459 11.16931795 5.11740764 22.31852689 7.14916992 33.60668945 C8.05969471 38.45073285 9.17508267 43.24238803 10.2890625 48.04296875 C12.74991306 58.76330828 15.02848278 69.5160162 17.25085449 80.28799438 C18.33184519 85.52629603 19.42049717 90.76300823 20.5078125 96 C20.72236084 97.03429642 20.93690918 98.06859283 21.15795898 99.13423157 C23.00400137 108.03080057 24.86562162 116.92397109 26.75 125.8125 C26.89048767 126.47520905 27.03097534 127.13791809 27.17572021 127.82070923 C29.29871555 137.82092425 31.50109953 147.8020847 33.73364258 157.77832031 C37.58823249 175.05075428 41.23932735 192.36948475 44.7890625 209.70703125 C44.9362825 210.42586487 45.0835025 211.14469849 45.23518372 211.88531494 C45.82335655 214.75879965 46.41125982 217.63233556 46.99655151 220.50640869 C48.52994903 228.03277239 50.10015696 235.54636019 51.80859375 243.03515625 C52.093396 244.28699707 52.37819824 245.53883789 52.67163086 246.82861328 C53.21052629 249.17637404 53.75653848 251.52251642 54.31079102 253.86669922 C54.54854248 254.89939941 54.78629395 255.93209961 55.03125 256.99609375 C55.24330078 257.89513428 55.45535156 258.7941748 55.67382812 259.72045898 C56 262 56 262 55 265 C49.21701494 258.21774914 43.47877531 251.41604751 37.9375 244.43359375 C33.26719986 238.5674708 28.48440824 232.79141516 23.703125 227.015625 C18.18195773 220.33989319 12.68822433 213.65545088 7.375 206.8125 C3.1612131 201.38900608 -1.23973117 196.15685904 -5.7331543 190.96362305 C-9.18854532 186.96539453 -12.53431264 182.89944734 -15.8125 178.75390625 C-18.66072391 175.16819579 -21.54820832 171.61515157 -24.4375 168.0625 C-25.00041748 167.37019287 -25.56333496 166.67788574 -26.14331055 165.96459961 C-30.75115055 160.30067079 -35.37169762 154.6472197 -40 149 C-45.1810818 142.67830691 -50.34759689 136.34507527 -55.5 130 C-57.16359903 127.95219906 -58.82733597 125.90451034 -60.49121094 123.85693359 C-61.80959789 122.23433632 -63.12749645 120.61134223 -64.4453125 118.98828125 C-68.9662449 113.43839112 -73.55392384 107.95006001 -78.19580078 102.5012207 C-79.46877292 101.00497366 -80.73454166 99.50260722 -82 98 C-82.78761719 97.13117188 -83.57523438 96.26234375 -84.38671875 95.3671875 C-86 93 -86 93 -85.81469727 91.09570312 C-84.81337489 88.51993109 -83.50080534 87.08441834 -81.578125 85.1015625 C-80.88203125 84.37453125 -80.1859375 83.6475 -79.46875 82.8984375 C-78.7365625 82.14820313 -78.004375 81.39796875 -77.25 80.625 C-75.8161254 79.13954718 -74.38380075 77.65259646 -72.953125 76.1640625 C-72.26798828 75.4515332 -71.58285156 74.73900391 -70.87695312 74.00488281 C-69.2833812 72.30269595 -67.77208281 70.57762358 -66.296875 68.7734375 C-64.00097523 66.00117757 -61.57786448 63.51002594 -59 61 C-53.34738155 55.4224163 -47.76851908 49.87169378 -42.609375 43.828125 C-40.43385379 41.35690187 -38.08999347 39.0795047 -35.7421875 36.7734375 C-33.95284173 34.95199585 -32.28711468 33.06285721 -30.625 31.125 C-28.03365795 28.1153247 -25.32745217 25.28911384 -22.5 22.5 C-18.45070188 18.4985821 -14.71109044 14.31246117 -11 10 C-9.40313369 8.16030443 -7.79874997 6.3271112 -6.1875 4.5 C-5.43855469 3.6440625 -4.68960938 2.788125 -3.91796875 1.90625 C-2 0 -2 0 0 0 Z " fill="#30B2AF" transform="translate(274,95)"/>
<path d="M0 0 C16.68115373 -0.2104915 33.36187499 -0.36906949 50.04403687 -0.46630955 C57.79038965 -0.51266566 65.53591604 -0.5758323 73.28173828 -0.67895508 C80.0351782 -0.76882287 86.78801956 -0.82676148 93.54204082 -0.84679645 C97.11674312 -0.85850409 100.68973351 -0.88589784 104.2638855 -0.95157051 C108.26002019 -1.02439732 112.25320348 -1.02589942 116.25 -1.02172852 C117.42748306 -1.054086 118.60496613 -1.08644348 119.81813049 -1.11978149 C124.53307271 -1.06657835 127.7146462 -1.02251196 131.48658752 1.97810555 C133.51008055 4.23117764 135.27869275 6.51165176 137 9 C137.73089844 9.88429688 138.46179688 10.76859375 139.21484375 11.6796875 C140.06755859 12.76636719 140.06755859 12.76636719 140.9375 13.875 C143.66012248 17.3152129 146.40489666 20.73306746 149.1875 24.125 C152.32062056 27.94483192 155.44201822 31.77375891 158.55395508 35.61083984 C163.67750906 41.92817961 168.82367381 48.22581783 174 54.5 C178.68036795 60.17635756 183.35175567 65.85979284 188 71.5625 C188.515625 72.19285156 189.03125 72.82320313 189.5625 73.47265625 C193.16067062 77.89540764 196.60849441 82.41710781 200 87 C191.99876457 84.52342713 184.40642343 81.24061742 176.75 77.875 C175.40571246 77.2875584 174.06122768 76.70056796 172.71655273 76.11401367 C170.69682099 75.23296548 168.67719373 74.35168941 166.65818787 73.46897888 C161.13800793 71.05589578 155.6036257 68.67708794 150.0625 66.3125 C134.79181256 59.78235 119.57119609 53.13899331 104.375 46.4375 C96.04464525 42.76487517 87.69762301 39.13597812 79.32397461 35.56323242 C74.0240613 33.30043256 68.73169608 31.02078781 63.4453125 28.7265625 C62.78510605 28.44007843 62.1248996 28.15359436 61.44468689 27.85842896 C58.18041407 26.44158426 54.91669795 25.02347044 51.65356445 23.60400391 C44.98008941 20.7058243 38.29268187 17.84942188 31.5690918 15.06933594 C25.96363161 12.73616901 20.4714567 10.25915676 15.0625 7.5 C10.15894308 5.01358103 5.13516766 2.95573407 0 1 C0 0.67 0 0.34 0 0 Z " fill="#31B2B0" transform="translate(113,275)"/>
<path d="M0 0 C-0.49628906 0.4846875 -0.99257813 0.969375 -1.50390625 1.46875 C-5.61836324 5.52855576 -9.51802288 9.68423069 -13.28515625 14.06640625 C-15.50169397 16.56569138 -17.87162281 18.88281884 -20.25390625 21.22265625 C-22.06477643 23.06593574 -23.75321354 24.97822799 -25.4375 26.9375 C-27.85617779 29.74576347 -30.35899683 32.39970593 -33 35 C-35.62040609 37.58009215 -38.10323412 40.21103607 -40.5 43 C-43.51521492 46.50861373 -46.72831166 49.74795164 -50.0234375 52.9921875 C-51.97507991 54.97468591 -53.80758517 57.0193608 -55.625 59.125 C-56.48351562 60.10146484 -56.48351562 60.10146484 -57.359375 61.09765625 C-58.4216448 62.32938338 -59.45546663 63.5864745 -60.453125 64.87109375 C-61.875 66.5625 -61.875 66.5625 -65 69 C-72.58256189 68.77964557 -79.43651139 66.54859335 -86.62109375 64.25390625 C-88.39275658 63.69714455 -88.39275658 63.69714455 -90.20021057 63.12913513 C-92.68154025 62.34719812 -95.16158064 61.56115919 -97.64038086 60.77124023 C-100.18283225 59.96189947 -102.72605026 59.15654551 -105.2722168 58.35913086 C-108.95323767 57.20598579 -112.63136923 56.04409408 -116.30859375 54.87890625 C-117.45122177 54.52051163 -118.59384979 54.162117 -119.77110291 53.79286194 C-120.82302322 53.45588791 -121.87494354 53.11891388 -122.95874023 52.77172852 C-124.35031593 52.3299099 -124.35031593 52.3299099 -125.77000427 51.87916565 C-128 51 -128 51 -130 49 C-123.87472383 46.21109151 -117.69392102 43.65074884 -111.41015625 41.2421875 C-110.51758118 40.89794739 -109.6250061 40.55370728 -108.7053833 40.19903564 C-105.82525279 39.08885332 -102.94389063 37.98190715 -100.0625 36.875 C-98.04769011 36.09900343 -96.03296086 35.32279748 -94.01831055 34.54638672 C-88.34665404 32.361357 -82.67359396 30.17999333 -77 28 C-76.32976807 27.7424292 -75.65953613 27.4848584 -74.96899414 27.21948242 C-73.32831048 26.58897083 -71.6875942 25.95854411 -70.046875 25.328125 C-69.07741943 24.95550537 -68.10796387 24.58288574 -67.10913086 24.19897461 C-65.24322566 23.4824214 -63.37685042 22.76709101 -61.51000977 22.05297852 C-54.97947862 19.54935322 -48.46449491 17.00826443 -41.95463562 14.45141602 C-37.4439365 12.68076557 -32.93092793 10.9160407 -28.41781616 9.15155029 C-26.14476382 8.26100169 -23.87280271 7.36766266 -21.60195923 6.47149658 C-18.40398391 5.20971758 -15.20243476 3.95744034 -12 2.70703125 C-11.02109299 2.31803146 -10.04218597 1.92903168 -9.03361511 1.52824402 C-8.13564713 1.17965836 -7.23767914 0.83107269 -6.3125 0.47192383 C-5.52488281 0.16233231 -4.73726563 -0.14725922 -3.92578125 -0.4662323 C-2 -1 -2 -1 0 0 Z " fill="#32B3B0" transform="translate(341,4)"/>
<path d="M0 0 C3.38774384 1.27193942 6.38666817 2.72894313 9.44921875 4.65234375 C10.28775391 5.17570313 11.12628906 5.6990625 11.99023438 6.23828125 C13.32538086 7.07939453 13.32538086 7.07939453 14.6875 7.9375 C16.58694891 9.12416331 18.48669326 10.31035385 20.38671875 11.49609375 C21.80863525 12.38530518 21.80863525 12.38530518 23.25927734 13.29248047 C27.15715247 15.72092681 31.07706154 18.11233663 35 20.5 C38.00081802 22.33199582 41.00044768 24.16593274 44 26 C44.93102539 26.56879883 45.86205078 27.13759766 46.82128906 27.72363281 C49.75825394 29.52021646 52.69195374 31.32202757 55.625 33.125 C56.55699219 33.69412109 57.48898437 34.26324219 58.44921875 34.84960938 C59.30386719 35.37619141 60.15851563 35.90277344 61.0390625 36.4453125 C61.80428223 36.91469238 62.56950195 37.38407227 63.35791016 37.86767578 C63.8997998 38.24134277 64.44168945 38.61500977 65 39 C65 39.33 65 39.66 65 40 C41.62012867 40.13330628 18.25194503 39.95970861 -5.125 39.5625 C-6.36789795 39.54285187 -7.6107959 39.52320374 -8.89135742 39.50296021 C-12.45111652 39.44573928 -16.01070169 39.38214777 -19.5703125 39.31640625 C-21.17104111 39.29132996 -21.17104111 39.29132996 -22.80410767 39.26574707 C-27.63203729 39.16879184 -32.25417432 38.99712018 -37 38 C-32.75789864 32.93288701 -28.32282911 28.18776629 -23.6328125 23.53515625 C-22.95322479 22.85698349 -22.27363708 22.17881073 -21.57345581 21.48008728 C-19.42632998 19.33850859 -17.27573373 17.20045471 -15.125 15.0625 C-13.65862227 13.60114411 -12.1924742 12.13955774 -10.7265625 10.67773438 C-7.15369 7.11582065 -3.57770316 3.55706135 0 0 Z " fill="#33B3B0" transform="translate(355,9)"/>
<path d="M0 0 C0.33 0 0.66 0 1 0 C1 20.79 1 41.58 1 63 C-6.193867 57.2449064 -11.42868788 49.2346786 -13 40 C-14.39646416 26.08746527 -12.50126767 15.51961808 -3.75 4.25 C-2.53781396 2.80084526 -1.29901736 1.37185945 0 0 Z " fill="#040404" transform="translate(420,136)"/>
<path d="M0 0 C6.27 0 12.54 0 19 0 C19 12.54 19 25.08 19 38 C8.91648408 29.35698635 1.34145545 18.93558522 0.1875 5.3125 C0.125625 3.559375 0.06375 1.80625 0 0 Z " fill="#050505" transform="translate(402,234)"/>
</svg>
