<?xml version="1.0" standalone="no"?>
<!DOCTYPE svg PUBLIC "-//W3C//DTD SVG 20010904//EN"
 "http://www.w3.org/TR/2001/REC-SVG-20010904/DTD/svg10.dtd">
<svg version="1.0" xmlns="http://www.w3.org/2000/svg"
 width="400.000000pt" height="400.000000pt" viewBox="0 0 400.000000 400.000000"
 preserveAspectRatio="xMidYMid meet">

<g transform="translate(0.000000,400.000000) scale(0.100000,-0.100000)"
fill="#000000" stroke="none">
<path d="M0 2000 l0 -2000 2000 0 2000 0 0 2000 0 2000 -2000 0 -2000 0 0
-2000z m1560 678 c377 -120 697 -224 712 -230 l28 -10 -202 -217 c-111 -119
-220 -235 -242 -258 l-41 -43 -495 496 c-298 298 -485 493 -470 489 14 -5 333
-106 710 -227z m1154 200 c-10 -13 -76 -84 -145 -158 -69 -74 -142 -153 -162
-176 l-38 -41 -174 56 c-96 30 -175 58 -175 61 0 4 695 279 709 280 2 0 -4
-10 -15 -22z m286 -116 c85 -52 160 -100 167 -106 9 -8 -63 -10 -267 -8 -154
1 -280 6 -280 10 0 15 204 211 214 205 6 -3 81 -49 166 -101z m-480 -1137 c82
-390 152 -718 154 -727 2 -10 3 -18 1 -18 -9 0 -790 974 -789 985 1 7 107 125
235 263 207 222 235 249 241 229 4 -12 75 -341 158 -732z m-146 -507 c108
-132 195 -243 193 -244 -4 -4 -1094 470 -1104 479 -3 4 156 7 354 7 l361 0
196 -242z"/>
</g>
</svg>
