<?xml version="1.0" encoding="UTF-8"?>
<svg version="1.1" xmlns="http://www.w3.org/2000/svg" width="900" height="900">
<path d="M0 0 C297 0 594 0 900 0 C900 297 900 594 900 900 C603 900 306 900 0 900 C0 603 0 306 0 0 Z " fill="#FEFEFE" transform="translate(0,0)"/>
<path d="M0 0 C8.98404906 1.46379618 17.40484714 4.27383885 26.01858521 7.13461304 C30.48885817 8.61884185 34.96543761 10.08383723 39.44140625 11.55078125 C40.7907148 11.99373283 40.7907148 11.99373283 42.1672821 12.44563293 C50.27567277 15.10259709 58.41225402 17.66237469 66.5625 20.1875 C77.04108573 23.4387676 87.49894671 26.74730476 97.9375 30.125 C98.91760544 30.44210938 98.91760544 30.44210938 99.91751099 30.765625 C103.11034867 31.79888593 106.30300346 32.83271026 109.49560547 33.86669922 C117.65268337 36.5046507 125.82004447 39.11051175 133.98681641 41.71826172 C137.00750946 42.68285197 140.02796447 43.648185 143.04833984 44.61376953 C148.92779989 46.49332721 154.80755508 48.37195973 160.6875 50.25 C161.70759155 50.57583069 162.72768311 50.90166138 163.77868652 51.23736572 C176.49834334 55.29914908 189.2250337 59.33734537 201.96246338 63.34301758 C219.18248954 68.75910841 236.35180299 74.32394398 253.51184082 79.92692566 C254.81888977 80.3536834 254.81888977 80.3536834 256.15234375 80.7890625 C257.00824097 81.06853226 257.86413818 81.34800201 258.74597168 81.63594055 C272.73360305 86.20045841 286.73447985 90.72795724 300.80859375 95.01953125 C307.35050155 97.02934625 313.87139904 99.10655314 320.39501953 101.17480469 C323.05312777 102.0168296 325.71208667 102.85613083 328.37109375 103.6953125 C338.68595119 106.95761342 348.97307427 110.285757 359.21240234 113.77905273 C363.11963049 115.10006063 366.91281721 116.34805673 371 117 C369.34265313 121.34921598 366.08848455 124.0913751 362.8125 127.25 C358.53431903 131.44385876 354.4199701 135.67304013 350.5390625 140.2421875 C348.3922397 142.69414248 346.06610409 144.94395999 343.7421875 147.2265625 C341.95284173 149.04800415 340.28711468 150.93714279 338.625 152.875 C335.32911866 156.70295187 331.78984646 160.22764298 328.1953125 163.7734375 C325.55993257 166.44633174 323.12233511 169.25368303 320.6796875 172.1015625 C318.47590954 174.59234411 316.11383259 176.89707999 313.7421875 179.2265625 C311.95284173 181.04800415 310.28711468 182.93714279 308.625 184.875 C305.39852835 188.62233703 301.95440285 192.08901216 298.40625 195.53125 C295.79182061 198.21358665 293.3547561 201.01325213 290.90039062 203.84130859 C287.68466189 207.49411865 284.341859 211.02537913 281 214.5625 C280.32710938 215.27857422 279.65421875 215.99464844 278.9609375 216.73242188 C275.75655966 220.13166053 272.52608838 223.49364125 269.2109375 226.78515625 C266.90898234 229.07113467 264.7130916 231.38917666 262.625 233.875 C258.65380536 238.48846074 254.34627493 242.74242456 250 247 C247.20092329 245.72429396 245.16631168 244.4108322 243.01074219 242.22192383 C242.45626404 241.66406693 241.90178589 241.10621002 241.33050537 240.53144836 C240.74190735 239.92939072 240.15330933 239.32733307 239.546875 238.70703125 C238.92782288 238.08277756 238.30877075 237.45852386 237.67095947 236.81535339 C235.69248853 234.8191003 233.72081257 232.816312 231.75 230.8125 C229.16485901 228.19062918 226.57653823 225.57195977 223.984375 222.95703125 C223.05461853 222.01889084 223.05461853 222.01889084 222.1060791 221.0617981 C218.43830907 217.38185326 214.71953866 213.82124156 210.71972656 210.4987793 C208.36532368 208.44686571 206.20136877 206.2131536 204 204 C202.57308418 202.57043525 201.14594072 201.14109771 199.71864319 199.71191406 C197.98958863 197.97982257 196.26053931 196.24772585 194.53149414 194.515625 C184.87906928 184.84665866 175.22392153 175.18041499 165.56737614 165.51556396 C159.72625644 159.66928394 153.88608427 153.8220631 148.0480957 147.97265625 C142.94274852 142.85732917 137.83563448 137.74377382 132.7264089 132.6323204 C130.02656411 129.93117556 127.32759729 127.22916674 124.63075447 124.52502441 C122.09418358 121.98164169 119.55524892 119.44064244 117.01452065 116.90141296 C115.64472461 115.53121302 114.27741091 114.15853286 112.91018677 112.7857666 C108.7497627 108.63226976 104.55142995 104.71673674 100 101 C99.38125 100.21625 98.7625 99.4325 98.125 98.625 C96.30349244 96.37490243 94.61888719 94.74439761 92.42883301 92.88949585 C87.75145276 88.83871119 83.38191164 84.52244116 79.01367188 80.14306641 C77.72444824 78.85647125 77.72444824 78.85647125 76.40917969 77.54388428 C74.07727116 75.21559576 71.74759162 72.88510716 69.41908836 70.55341387 C66.97559967 68.1073761 64.52965257 65.66379854 62.08410645 63.21981812 C57.98721589 59.12473945 53.89242241 55.02757278 49.79882812 50.92919922 C45.06199239 46.18689726 40.32153065 41.44824273 35.57921934 36.71141684 C31.50082021 32.63754656 27.42436138 28.56174245 23.34953737 24.4842962 C20.91829929 22.05149736 18.48638624 19.6193836 16.05271912 17.18901443 C13.3493444 14.48904879 10.65004448 11.78503273 7.95117188 9.08056641 C7.14087524 8.27229401 6.33057861 7.46402161 5.49572754 6.6312561 C4.76684326 5.899552 4.03795898 5.1678479 3.2869873 4.41397095 C2.64843559 3.77504221 2.00988388 3.13611347 1.35198212 2.47782326 C0 1 0 1 0 0 Z " fill="#2CB9A9" transform="translate(141,209)"/>
<path d="M0 0 C1.93594366 3.40300252 2.71082668 6.70666483 3.50878906 10.52734375 C3.71422585 11.49951088 3.71422585 11.49951088 3.92381287 12.49131775 C4.37630936 14.63898505 4.82094492 16.78820189 5.265625 18.9375 C5.58419596 20.45664801 5.90327705 21.97568912 6.22283936 23.49462891 C7.06708993 27.5139092 7.90479771 31.53452538 8.74102783 35.55548096 C9.56989899 39.53642817 10.40412814 43.51625053 11.23828125 47.49609375 C12.22084397 52.18496475 13.20311464 56.87389415 14.18286133 61.56335449 C16.40256138 72.18323215 18.6601474 82.79438256 20.94134521 93.40124512 C22.98061177 102.88853308 24.97644377 112.38445714 26.95507812 121.884552 C30.57717426 139.26943693 34.2599137 156.64010122 38 174 C39.37716298 180.3953691 40.75202952 186.79122954 42.125 193.1875 C42.40216858 194.47850616 42.40216858 194.47850616 42.68493652 195.79559326 C46.76236973 214.79951659 50.76168087 233.81983162 54.75048828 252.8425293 C57.53643525 266.11916414 60.37327295 279.38322675 63.26672363 292.6368103 C65.59987781 303.33787807 67.91754538 314.04230078 70.22553635 324.74882221 C71.07753305 328.70047434 71.93169782 332.65163339 72.79052734 336.60180664 C73.63758175 340.49818875 74.47918403 344.39571279 75.31708527 348.2940731 C75.63250764 349.7571292 75.94981038 351.21978139 76.26915741 352.68198586 C77.95885156 360.42464256 79.48813971 368.07536373 80 376 C76.25502379 372.34354141 72.77194463 368.54290002 69.375 364.5625 C68.85429932 363.95414307 68.33359863 363.34578613 67.79711914 362.71899414 C63.76144617 357.97010192 59.89487957 353.10548431 56.07568359 348.18188477 C52.9782167 344.20252337 49.78055311 340.32944396 46.5 336.5 C42.73619973 332.10645363 39.10793304 327.63397526 35.5625 323.0625 C31.83421502 318.2583385 27.98646023 313.59206346 24 309 C19.52812239 303.84877697 15.26133074 298.5779397 11.08081055 293.18847656 C7.47806328 288.56147611 3.72785768 284.07878965 -0.07958984 279.61962891 C-4.16327881 274.83109611 -8.09684019 269.93587084 -12 265 C-21.1088654 253.55502472 -30.3551159 242.22096148 -39.625 230.90625 C-42.59088194 227.2769471 -45.54565306 223.63869437 -48.5 220 C-53.65220766 213.65476674 -58.81891905 207.32169206 -64 201 C-71.93131166 191.322616 -79.82045957 181.61129894 -87.70703125 171.89746094 C-93.65559034 164.57116087 -99.60899634 157.24920634 -105.58984375 149.94921875 C-110.74166617 143.64512487 -115.8689971 137.32104261 -121 131 C-117.48701608 126.12327772 -113.90397305 121.683945 -109.5625 117.5 C-105.76657982 113.79619518 -102.18395591 109.9955464 -98.7421875 105.9609375 C-96.7456211 103.71368115 -94.63987054 101.61105073 -92.5 99.5 C-89.83411278 96.86537109 -87.25513213 94.21755931 -84.8125 91.375 C-79.69545142 85.42275499 -74.27149915 79.74918098 -68.90136719 74.02636719 C-67.03966679 72.04227457 -65.17973675 70.05653819 -63.3203125 68.0703125 C-56.87019787 61.18249625 -50.4074395 54.30669333 -43.9375 47.4375 C-34.60992394 37.53153967 -25.28708654 27.62204473 -16.125 17.5625 C-12.41141942 13.49289768 -8.61841202 9.54660144 -4.65625 5.71875 C-2.92248366 3.91955851 -1.45778818 2.02668113 0 0 Z " fill="#2CB9A9" transform="translate(526,341)"/>
<path d="M0 0 C23.65249788 -0.32748335 47.30465458 -0.57413397 70.9589653 -0.72537041 C81.94297964 -0.79746912 92.92558298 -0.89570539 103.90869141 -1.05615234 C113.48510651 -1.19598254 123.06049962 -1.28608131 132.63790727 -1.31723893 C137.70668759 -1.33544556 142.77254511 -1.37801726 147.84038544 -1.48022079 C152.61841768 -1.57579226 157.39234634 -1.60446242 162.17124367 -1.58350754 C163.91766807 -1.58733603 165.66424011 -1.61488463 167.40983391 -1.66887665 C180.20323053 -2.04492387 180.20323053 -2.04492387 184.8691721 1.36668921 C188.34518073 4.6524537 191.15258638 8.34418855 193.82953119 12.29445434 C195.48202481 14.70238124 197.32949939 16.93643812 199.1875 19.1875 C199.8165625 19.98285156 200.445625 20.77820313 201.09375 21.59765625 C203.10094075 24.12721017 205.13965331 26.62825938 207.1875 29.125 C210.97169307 33.73923197 214.73893156 38.36690199 218.5 43 C222.15882097 47.50647495 225.82125021 52.00976129 229.5 56.5 C233.74954171 61.68694061 237.97655773 66.89199885 242.203125 72.09765625 C245.29479333 75.90445347 248.39204863 79.70647112 251.5 83.5 C274.83266187 112.00345324 274.83266187 112.00345324 283 123 C276.04056634 120.81131891 269.46477169 118.11031585 262.8125 115.125 C260.56544874 114.12682812 258.31803805 113.12946506 256.0703125 112.1328125 C254.9040332 111.61493164 253.73775391 111.09705078 252.53613281 110.56347656 C246.76622338 108.01235118 240.97755963 105.50498384 235.1875 103 C234.58434967 102.73890442 233.98119934 102.47780884 233.35977173 102.20880127 C219.33686622 96.13848388 205.30632222 90.0858052 191.27734375 84.02954102 C175.84537673 77.36725318 160.41924493 70.69168274 145 64 C144.02015137 63.57493164 143.04030273 63.14986328 142.03076172 62.71191406 C132.83037333 58.71997741 123.63425624 54.71855602 114.44921875 50.69140625 C101.7975278 45.14517363 89.14191973 39.6122779 76.4375 34.1875 C60.86027217 27.53583555 45.34052169 20.75333009 29.81784058 13.97561646 C22.90226533 10.95629412 15.98327599 7.94488465 9.0625 4.9375 C8.11592529 4.52612793 7.16935059 4.11475586 6.1940918 3.69091797 C4.12946867 2.79377467 2.06474859 1.89685451 0 1 C0 0.67 0 0.34 0 0 Z " fill="#2CB9A9" transform="translate(299,598)"/>
<path d="M0 0 C0.99 0.495 0.99 0.495 2 1 C1.43152344 1.556875 0.86304688 2.11375 0.27734375 2.6875 C-4.10768061 7.02128034 -8.30725289 11.42274184 -12.3203125 16.1015625 C-14.52165393 18.58959026 -16.88088515 20.89194077 -19.25 23.21875 C-21.08242487 25.08389674 -22.79353135 27.01927746 -24.5 29 C-27.25399883 32.19660578 -30.14812346 35.17340148 -33.15820312 38.12719727 C-34.92497782 39.92371486 -36.57664464 41.77314314 -38.21875 43.68359375 C-42.04042033 48.07851463 -46.00063864 52.32945948 -50 56.5625 C-50.67289063 57.27857422 -51.34578125 57.99464844 -52.0390625 58.73242188 C-55.24090852 62.12897475 -58.46869698 65.48845182 -61.78125 68.77734375 C-64.12682459 71.10662963 -66.36526015 73.47316508 -68.5 76 C-71.27997408 79.22675563 -74.20490098 82.22813145 -77.2421875 85.2109375 C-79.73505472 87.74812236 -82.03411295 90.43941096 -84.35546875 93.1328125 C-86.47130895 95.53512038 -88.7024661 97.77208834 -91 100 C-99.16993929 97.8893127 -107.13960726 95.34475362 -115.125 92.625 C-123.55824077 89.778494 -131.99398748 87.04260321 -140.55322266 84.60205078 C-145.14259204 83.28406033 -149.5843776 81.72570358 -154.046875 80.03515625 C-158.6052162 78.43732501 -163.24851542 77.13500751 -167.90039062 75.83789062 C-172.45144918 74.54550942 -176.68670139 72.94775919 -181 71 C-178.42730308 68.42730308 -175.98880719 67.69298637 -172.5859375 66.390625 C-171.62293983 66.01967712 -171.62293983 66.01967712 -170.64048767 65.64123535 C-168.55392331 64.83901402 -166.46453331 64.04445224 -164.375 63.25 C-162.94018426 62.69997203 -161.50553262 62.14951578 -160.07104492 61.59863281 C-151.98221495 58.49688409 -143.87600776 55.44315656 -135.75390625 52.4296875 C-130.18245409 50.33373853 -124.6799694 48.06025555 -119.16210938 45.828125 C-113.76949016 43.66268413 -108.36278193 41.67979045 -102.80078125 39.984375 C-100.42419045 39.14908786 -98.20717328 38.21250829 -95.91772461 37.17114258 C-91.17321483 35.04988088 -86.3666754 33.13955444 -81.515625 31.27734375 C-80.62984772 30.93529404 -79.74407043 30.59324432 -78.83145142 30.24082947 C-75.97186113 29.13738551 -73.11097716 28.03734255 -70.25 26.9375 C-68.26574344 26.1728038 -66.28153152 25.40799174 -64.29736328 24.64306641 C-52.01461246 19.91148642 -39.72127746 15.20829875 -27.40405273 10.56713867 C-22.35625176 8.66363726 -17.319063 6.74214621 -12.30859375 4.7421875 C-11.025896 4.23196045 -11.025896 4.23196045 -9.71728516 3.71142578 C-8.17380104 3.09434553 -6.63285104 2.47086648 -5.09521484 1.83935547 C-3.41859416 1.16895503 -1.71151283 0.57551498 0 0 Z " fill="#2EB9AA" transform="translate(620,211)"/>
<path d="M0 0 C1.57628025 0.77562902 3.15110976 1.55420665 4.7253418 2.33398438 C6.04105415 2.98385315 6.04105415 2.98385315 7.38334656 3.64685059 C11.34793826 5.69705902 15.06936129 8.07521736 18.8125 10.5 C20.47730144 11.56468316 22.14268749 12.62845264 23.80859375 13.69140625 C24.66179199 14.23684082 25.51499023 14.78227539 26.39404297 15.34423828 C30.69815893 18.07896888 35.03591312 20.75872634 39.375 23.4375 C40.24664795 23.97624756 41.1182959 24.51499512 42.01635742 25.07006836 C44.67709016 26.71416 47.33844254 28.35724384 50 30 C57.00576566 34.32407148 64.00819089 38.65338845 71 43 C71.91313965 43.5676709 72.8262793 44.1353418 73.76708984 44.72021484 C76.45169976 46.39237029 79.13270914 48.07013488 81.8125 49.75 C83.0502417 50.52065796 83.0502417 50.52065796 84.31298828 51.30688477 C85.43616455 52.01349243 85.43616455 52.01349243 86.58203125 52.734375 C87.24436768 53.14913086 87.9067041 53.56388672 88.58911133 53.99121094 C89.05470459 54.32411133 89.52029785 54.65701172 90 55 C90 55.33 90 55.66 90 56 C81.14591195 56.06406059 72.29178437 56.10289343 63.4375 56.125 C62.75685863 56.12671204 62.07621727 56.12842407 61.37495041 56.13018799 C35.42558816 56.18752419 9.50177061 55.6967354 -16.4375 55 C-17.32823841 54.97608437 -18.21897682 54.95216873 -19.13670731 54.92752838 C-30.09154114 54.63214124 -41.04594507 54.32297032 -52 54 C-50.43056316 50.21698773 -48.06898723 47.82743453 -45.18310547 44.95605469 C-44.69513489 44.46779205 -44.20716431 43.97952942 -43.70440674 43.47647095 C-42.09669725 41.87015038 -40.48202899 40.27102287 -38.8671875 38.671875 C-37.74859765 37.55701683 -36.63044971 36.44171513 -35.51272583 35.32598877 C-32.57440675 32.39529391 -29.63013045 29.47065578 -26.68457031 26.54724121 C-23.67801738 23.56117275 -20.67714118 20.56941141 -17.67578125 17.578125 C-11.78939314 11.71316544 -5.896699 5.85459268 0 0 Z " fill="#2DB9A9" transform="translate(643,219)"/>
<path d="M0 0 C-1 1 -1 1 -3.51197815 1.12025452 C-4.62894577 1.11803391 -5.74591339 1.11581329 -6.89672852 1.11352539 C-8.15796036 1.11344986 -9.4191922 1.11337433 -10.71864319 1.11329651 C-12.10539794 1.1081891 -13.49215229 1.10297309 -14.87890625 1.09765625 C-16.28995209 1.09579201 -17.70099857 1.09436814 -19.11204529 1.09336853 C-22.83240535 1.08954379 -26.5527266 1.0797139 -30.27307129 1.06866455 C-34.06680781 1.05844948 -37.86055058 1.05387071 -41.65429688 1.04882812 C-49.10288231 1.03809158 -56.55143572 1.0210157 -64 1 C-64 0.34 -64 -0.32 -64 -1 C-55.9509531 -1.17685715 -47.90178762 -1.34281945 -39.85223579 -1.49477577 C-36.1147333 -1.56567548 -32.3773857 -1.64036314 -28.64013672 -1.72363281 C-25.03523776 -1.80381545 -21.43027026 -1.87414562 -17.82503891 -1.93757248 C-16.4478227 -1.9635482 -15.07066937 -1.99310745 -13.69360733 -2.02626419 C-11.76875786 -2.07200549 -9.84359567 -2.10396519 -7.91845703 -2.13525391 C-6.82147491 -2.15746002 -5.7244928 -2.17966614 -4.5942688 -2.20254517 C-2 -2 -2 -2 0 0 Z " fill="#D3FAF8" transform="translate(735,276)"/>
<path d="M0 0 C0.33 0.99 0.66 1.98 1 3 C-0.41208167 4.60820412 -1.82986036 6.21140708 -3.25 7.8125 C-4.03890625 8.70582031 -4.8278125 9.59914063 -5.640625 10.51953125 C-7.65879445 12.64128225 -9.59916705 14.34254423 -12 16 C-12.66 15.67 -13.32 15.34 -14 15 C-13.49210937 14.50371094 -12.98421875 14.00742187 -12.4609375 13.49609375 C-8.07156726 9.16426208 -3.94791282 4.73749539 0 0 Z " fill="#DBFAF8" transform="translate(441,402)"/>
<path d="M0 0 C0.33 0.99 0.66 1.98 1 3 C-0.43645851 4.60509934 -1.87420706 6.20904424 -3.3125 7.8125 C-4.11300781 8.70582031 -4.91351562 9.59914063 -5.73828125 10.51953125 C-7.45224581 12.39926786 -9.17877604 14.22592747 -11 16 C-11.99 15.67 -12.98 15.34 -14 15 C-12.73542969 13.75283203 -12.73542969 13.75283203 -11.4453125 12.48046875 C-10.33840925 11.38294603 -9.2316457 10.28528241 -8.125 9.1875 C-7.56941406 8.64029297 -7.01382813 8.09308594 -6.44140625 7.52929688 C-5.90644531 6.99755859 -5.37148438 6.46582031 -4.8203125 5.91796875 C-4.32805176 5.43094482 -3.83579102 4.9439209 -3.32861328 4.44213867 C-1.77411511 2.82996499 -1.77411511 2.82996499 0 0 Z " fill="#D9FAF8" transform="translate(585,250)"/>
<path d="M0 0 C0.66 0.33 1.32 0.66 2 1 C0.52386015 2.50297876 -0.95599157 4.00231285 -2.4375 5.5 C-3.26121094 6.3353125 -4.08492187 7.170625 -4.93359375 8.03125 C-7 10 -7 10 -8 10 C-8.33 8.02 -8.66 6.04 -9 4 C-7.54618103 3.30300448 -6.08677047 2.61766134 -4.625 1.9375 C-3.40683594 1.36322266 -3.40683594 1.36322266 -2.1640625 0.77734375 C-1.44992187 0.52082031 -0.73578125 0.26429688 0 0 Z " fill="#39B3A4" transform="translate(620,211)"/>
<path d="M0 0 C1.890625 0.33984375 1.890625 0.33984375 4 1 C5.75 3.5625 5.75 3.5625 7 6 C7.99 5.01 8.98 4.02 10 3 C10.33 6.3 10.66 9.6 11 13 C6.78185183 9.0299782 3.38772897 4.69159716 0 0 Z " fill="#41B3A7" transform="translate(595,704)"/>
<path d="M0 0 C4.57888152 1.45115322 8.97649435 3.20581904 13.375 5.125 C14.01566406 5.40214844 14.65632813 5.67929687 15.31640625 5.96484375 C16.87856925 6.64100385 18.43942315 7.32018707 20 8 C20 8.33 20 8.66 20 9 C15.94420928 9.27521437 13.5573785 8.54820775 10 6.625 C6.71889368 4.87165881 3.47711578 3.32875496 0 2 C0 1.34 0 0.68 0 0 Z " fill="#D8FAF8" transform="translate(348,620)"/>
<path d="M0 0 C5.52677733 -0.19392201 9.75614911 0.2520497 15 2 C15 2.66 15 3.32 15 4 C15.99 4.33 16.98 4.66 18 5 C14.62899267 6.68550367 11.27985368 4.68863036 7.875 3.5625 C6.74384766 3.19801758 6.74384766 3.19801758 5.58984375 2.82617188 C3.72442121 2.22404181 1.86192317 1.61286537 0 1 C0 0.67 0 0.34 0 0 Z " fill="#CBF4F1" transform="translate(169,217)"/>
<path d="M0 0 C5.625 -0.25 5.625 -0.25 9 2 C11.27538323 2.66613335 11.27538323 2.66613335 13.6875 3.125 C14.89986328 3.37636719 14.89986328 3.37636719 16.13671875 3.6328125 C16.75160156 3.75398437 17.36648437 3.87515625 18 4 C18 4.66 18 5.32 18 6 C17.35933594 5.86722656 16.71867187 5.73445312 16.05859375 5.59765625 C11.05016007 4.57506994 6.06888206 3.66115853 1 3 C0.67 2.01 0.34 1.02 0 0 Z " fill="#C5F0EC" transform="translate(139,207)"/>
<path d="M0 0 C0.66 0 1.32 0 2 0 C3.77401632 4.62974991 4.39641621 8.96044843 4.625 13.875 C4.66367187 14.56335938 4.70234375 15.25171875 4.7421875 15.9609375 C4.83548166 17.64023246 4.91878238 19.32007767 5 21 C4.67 21 4.34 21 4 21 C2.68 14.07 1.36 7.14 0 0 Z " fill="#C7F5F2" transform="translate(563,513)"/>
<path d="M0 0 C2.93200474 2.85276137 5.64315404 5.65079784 8 9 C5.03 8.01 2.06 7.02 -1 6 C-1.042721 4.33388095 -1.04063832 2.66617115 -1 1 C-0.67 0.67 -0.34 0.34 0 0 Z " fill="#42B4A6" transform="translate(574,712)"/>
<path d="M0 0 C0 3.49889647 -0.54120332 4.0553603 -2.75 6.625 C-3.26046875 7.23601562 -3.7709375 7.84703125 -4.296875 8.4765625 C-6.19607419 10.17538747 -7.51275949 10.5998787 -10 11 C-6.79239749 7.19364503 -3.59253891 3.45436433 0 0 Z " fill="#43B6A7" transform="translate(491,379)"/>
<path d="M0 0 C0.625 1.8125 0.625 1.8125 1 4 C-1 7 -1 7 -3.125 7.6875 C-3.74375 7.790625 -4.3625 7.89375 -5 8 C-4.45773019 4.20411134 -2.79872437 2.52788007 0 0 Z " fill="#39B5A6" transform="translate(517,351)"/>
<path d="M0 0 C2.12046792 3.53411321 2.53199289 6.94393835 3 11 C2.34 11 1.68 11 1 11 C0.67 9.35 0.34 7.7 0 6 C-0.66 6 -1.32 6 -2 6 C-1.125 1.125 -1.125 1.125 0 0 Z " fill="#46B4A7" transform="translate(526,341)"/>
<path d="M0 0 C4.29 0.33 8.58 0.66 13 1 C13 1.33 13 1.66 13 2 C8.38 2.33 3.76 2.66 -1 3 C-0.67 2.01 -0.34 1.02 0 0 Z " fill="#42B5A8" transform="translate(592,270)"/>
<path d="M0 0 C0 3.97054597 -1.3139381 5.16471244 -4 8 C-6.140625 8.6484375 -6.140625 8.6484375 -8 9 C-7.04270084 7.87411986 -6.08412105 6.7493285 -5.125 5.625 C-4.59132813 4.99851562 -4.05765625 4.37203125 -3.5078125 3.7265625 C-2.38567993 2.44163349 -1.20628025 1.20628025 0 0 Z " fill="#49BAAC" transform="translate(601,261)"/>
<path d="M0 0 C2.66666667 2.66666667 5.33333333 5.33333333 8 8 C7.67 8.66 7.34 9.32 7 10 C1.21538462 5.69230769 1.21538462 5.69230769 0.125 2.1875 C0.08375 1.465625 0.0425 0.74375 0 0 Z " fill="#D5F9F8" transform="translate(408,476)"/>
<path d="M0 0 C0.33 0.99 0.66 1.98 1 3 C-1.97 5.475 -1.97 5.475 -5 8 C-5.66 7.67 -6.32 7.34 -7 7 C-4.69 4.69 -2.38 2.38 0 0 Z " fill="#42B8A9" transform="translate(446,427)"/>
<path d="M0 0 C0.33 0.66 0.66 1.32 1 2 C-0.65 3.98 -2.3 5.96 -4 8 C-4.99 7.67 -5.98 7.34 -7 7 C-4.69 4.69 -2.38 2.38 0 0 Z " fill="#D1F8F5" transform="translate(475,366)"/>
<path d="M0 0 C3.25 -0.25 3.25 -0.25 7 0 C8.32 1.32 9.64 2.64 11 4 C7.37 3.01 3.74 2.02 0 1 C0 0.67 0 0.34 0 0 Z " fill="#C2F2EE" transform="translate(401,291)"/>
<path d="M0 0 C3.25 -0.25 3.25 -0.25 7 0 C8.32 1.32 9.64 2.64 11 4 C7.37 3.01 3.74 2.02 0 1 C0 0.67 0 0.34 0 0 Z " fill="#C8F4F1" transform="translate(276,251)"/>
<path d="M0 0 C0.33 0.99 0.66 1.98 1 3 C-0.32 4.32 -1.64 5.64 -3 7 C-3.99 6.67 -4.98 6.34 -6 6 C-4.02 4.02 -2.04 2.04 0 0 Z " fill="#D8FAF8" transform="translate(506,333)"/>
<path d="M0 0 C1.65 0.33 3.3 0.66 5 1 C5 1.66 5 2.32 5 3 C0.545 3.495 0.545 3.495 -4 4 C-4 3.34 -4 2.68 -4 2 C-2.68 2 -1.36 2 0 2 C0 1.34 0 0.68 0 0 Z " fill="#D9F8F5" transform="translate(619,209)"/>
<path d="M0 0 C3.82097239 0.53069061 6.06171403 1.49701566 9 4 C5.37471432 4.20140476 3.13498292 3.85776765 0 2 C0 1.34 0 0.68 0 0 Z " fill="#D6FAF7" transform="translate(308,603)"/>
<path d="M0 0 C0.33 0.66 0.66 1.32 1 2 C-0.32 3.65 -1.64 5.3 -3 7 C-3.99 6.67 -4.98 6.34 -6 6 C-4.02 4.02 -2.04 2.04 0 0 Z " fill="#D6FAF9" transform="translate(416,429)"/>
<path d="M0 0 C0.33 0.66 0.66 1.32 1 2 C-0.32 3.65 -1.64 5.3 -3 7 C-3.99 6.67 -4.98 6.34 -6 6 C-4.02 4.02 -2.04 2.04 0 0 Z " fill="#DBFCFA" transform="translate(463,379)"/>
</svg>
