<?xml version="1.0" encoding="UTF-8"?>
<svg version="1.1" xmlns="http://www.w3.org/2000/svg" width="400" height="400">
<path d="M0 0 C132 0 264 0 400 0 C400 132 400 264 400 400 C268 400 136 400 0 400 C0 268 0 136 0 0 Z " fill="#000000" transform="translate(0,0)"/>
<path d="M0 0 C8.64274082 2.03127036 17.05873483 4.52224116 25.4921875 7.2890625 C26.78509284 7.70970353 28.0781368 8.12991872 29.37130737 8.54974365 C32.11602031 9.44145718 34.86000186 10.33537008 37.60339355 11.23114014 C44.88074669 13.60691507 52.1630115 15.96756894 59.4453125 18.328125 C60.18202179 18.56705349 60.91873108 18.80598198 61.67776489 19.05215073 C78.83355201 24.61433002 96.03428696 30.02939429 113.24951172 35.40478516 C124.74626136 38.99931147 136.20241959 42.69016865 147.61791992 46.53540039 C153.37768696 48.47174786 159.17896414 50.25760474 165 52 C166.74482946 52.52461389 168.48961754 53.04936545 170.234375 53.57421875 C175.15512503 55.05324576 180.07716104 56.52794209 185 58 C185 62 185 62 183.27734375 64.078125 C182.50519531 64.79484375 181.73304688 65.5115625 180.9375 66.25 C177.98035281 69.0733605 175.14816265 71.88451453 172.5 75 C169.25075327 78.79078785 165.74813968 82.26878424 162.1953125 85.7734375 C159.55993257 88.44633174 157.12233511 91.25368303 154.6796875 94.1015625 C152.4771278 96.59096719 150.11647364 98.8945103 147.74609375 101.22265625 C145.93522357 103.06593574 144.24678646 104.97822799 142.5625 106.9375 C139.49223682 110.50452487 136.21961426 113.80131359 132.8671875 117.1015625 C130.40070885 119.60932113 128.19640856 122.25448931 126 125 C119.57290424 119.75575531 113.78566439 113.90191625 107.94824409 108.02340889 C106.09543651 106.15770352 104.23940592 104.29525735 102.3825531 102.43357849 C97.77288035 97.81061701 93.16868231 93.18221554 88.56433105 88.55395508 C84.6654825 84.63527904 80.76452649 80.71872349 76.86082268 76.80488396 C75.04425232 74.98189488 73.2307532 73.15588942 71.41737366 71.32972717 C66.44865053 66.33915548 61.46296092 61.44598333 56.10215759 56.87284851 C50.99509822 52.3228811 46.23669842 47.37913909 41.40625 42.5390625 C40.20713636 41.34062355 39.0078744 40.14233299 37.80847168 38.94418335 C35.31242015 36.44959706 32.818164 33.95323342 30.32519531 31.45556641 C27.12281511 28.24744607 23.91590754 25.04389458 20.70767975 21.84162331 C18.23873671 19.37628081 15.77216414 16.90857783 13.30632019 14.44013596 C12.12364683 13.25679415 10.94022643 12.07419848 9.75605774 10.89235306 C8.11164059 9.25045873 6.47043427 7.60542279 4.83007812 5.95947266 C4.09152084 5.22395172 4.09152084 5.22395172 3.33804321 4.47357178 C0 1.11427149 0 1.11427149 0 0 Z " fill="#FCFCFC" transform="translate(51,72)"/>
<path d="M0 0 C0.66 0.33 1.32 0.66 2 1 C2.77575946 3.97138453 3.42989396 6.89720376 4.0234375 9.90625 C4.21088531 10.81894653 4.39833313 11.73164307 4.59146118 12.67199707 C5.19405338 15.61308469 5.78502056 18.55635872 6.375 21.5 C7.14990572 25.32368346 7.92963451 29.14636907 8.7109375 32.96875 C8.9016835 33.90590851 9.0924295 34.84306702 9.28895569 35.80862427 C10.63964149 42.39371526 12.10596182 48.943259 13.69772339 55.47424316 C14.71628423 59.67074883 15.56247829 63.87259475 16.3125 68.125 C17.79048961 76.30701986 19.64493509 84.39706121 21.5 92.5 C23.62696193 101.79058722 25.65410408 111.06769532 27.32421875 120.453125 C28.35022046 125.83815133 29.64121489 131.15099117 30.9375 136.4765625 C32.40901524 142.62508669 33.69477971 148.81449434 35 155 C35.27005859 156.2772998 35.54011719 157.55459961 35.81835938 158.87060547 C36.50450587 162.12949635 37.17795978 165.39088996 37.84472656 168.65380859 C38.11873183 169.98653059 38.39616914 171.31855085 38.67675781 172.64990234 C39.08962087 174.61123913 39.49030713 176.57512679 39.890625 178.5390625 C40.12813477 179.68584473 40.36564453 180.83262695 40.61035156 182.01416016 C40.97141005 184.78091784 40.92515564 186.40623175 40 189 C39.57332031 188.46375 39.14664063 187.9275 38.70703125 187.375 C29.86554325 176.29123773 20.90969651 165.30168867 11.875 154.375 C7.15251377 148.66247201 2.52972957 142.88534432 -2.02124023 137.03564453 C-5.59869154 132.45899002 -9.32178307 128.02082233 -13.09326172 123.60351562 C-16.38662642 119.74224834 -19.57390721 115.81214356 -22.7265625 111.8359375 C-25.67874039 108.15332384 -28.68263044 104.51466098 -31.6875 100.875 C-41.21823603 89.32550761 -50.67655676 77.71768093 -60 66 C-58.66000502 62.993182 -57.20154709 61.00237391 -54.8125 58.75 C-52.2425351 56.25984768 -49.83113126 53.71526802 -47.5 51 C-45.2544206 48.39352391 -42.95448488 45.91065479 -40.5 43.5 C-38.06610268 41.10946833 -35.78644441 38.64953738 -33.5625 36.0625 C-30.59394444 32.61578784 -27.45920896 29.40889141 -24.1875 26.25 C-22.29924898 24.30779895 -20.5209896 22.32578527 -18.74609375 20.28125 C-14.95731492 15.91884297 -11.02732928 11.70217431 -7.0625 7.5 C-6.37865234 6.77296875 -5.69480469 6.0459375 -4.99023438 5.296875 C-3.32805493 3.53008286 -1.66463361 1.76447952 0 0 Z " fill="#FCFCFC" transform="translate(244,139)"/>
<path d="M0 0 C11.9348911 -0.32527719 23.86871808 -0.57357532 35.80714893 -0.72537041 C41.35179167 -0.79825212 46.89338937 -0.89697633 52.4362793 -1.05615234 C57.79229479 -1.20898813 63.14539508 -1.29211811 68.50342369 -1.3282814 C70.54066556 -1.35402718 72.5777586 -1.40431179 74.61374855 -1.48022079 C90.14070115 -2.03576261 90.14070115 -2.03576261 94.92147827 1.36805344 C98.73811543 5.10218505 101.32815803 9.41177042 104 14 C105.19304856 15.53446708 106.41090525 17.05097503 107.6796875 18.5234375 C108.20925049 19.1632959 108.73881348 19.8031543 109.28442383 20.46240234 C109.80931396 21.09355957 110.3342041 21.7247168 110.875 22.375 C112.06425109 23.81212856 113.25304167 25.2496383 114.44140625 26.6875 C115.32530029 27.75677734 115.32530029 27.75677734 116.22705078 28.84765625 C119.65161391 33.00504382 123.04283789 37.18952731 126.43237305 41.37548828 C128.85388348 44.36475716 131.28131945 47.3476912 133.7421875 50.3046875 C134.54914063 51.27664063 135.35609375 52.24859375 136.1875 53.25 C136.88230469 54.08015625 137.57710937 54.9103125 138.29296875 55.765625 C139.84489785 57.796983 140.89950578 59.70818094 142 62 C135.70947773 60.01524843 129.66381121 57.68198035 123.62109375 55.04296875 C122.74406296 54.66349594 121.86703217 54.28402313 120.96342468 53.89305115 C118.11984285 52.66153583 115.27864773 51.42461921 112.4375 50.1875 C110.45243223 49.32638111 108.46724218 48.46554403 106.48193359 47.60498047 C93.09568877 41.79841577 79.72491186 35.95637917 66.36091614 30.09881592 C58.12225303 26.4880352 49.87675897 22.89325119 41.625 19.3125 C41.01171844 19.04603668 40.39843689 18.77957336 39.76657104 18.5050354 C32.98945648 15.56164693 26.19948037 12.65348976 19.37890625 9.8125 C17.56302002 9.053927 17.56302002 9.053927 15.71044922 8.2800293 C13.41122711 7.32225909 11.10956333 6.37032344 8.80517578 5.42504883 C7.79052246 5.00247803 6.77586914 4.57990723 5.73046875 4.14453125 C4.83739014 3.77690674 3.94431152 3.40928223 3.02416992 3.03051758 C1 2 1 2 0 0 Z " fill="#F7F7F7" transform="translate(130,267)"/>
<path d="M0 0 C-0.42410156 0.4125 -0.84820312 0.825 -1.28515625 1.25 C-4.44388984 4.36013769 -7.48891907 7.50903208 -10.375 10.875 C-13.60147165 14.62233703 -17.04559715 18.08901216 -20.59375 21.53125 C-23.21154777 24.21704251 -25.65926301 27.01515171 -28.11767578 29.84619141 C-31.24997066 33.43025177 -34.45815457 36.94094335 -37.6875 40.4375 C-38.33783203 41.15615234 -38.98816406 41.87480469 -39.65820312 42.61523438 C-40.29048828 43.29779297 -40.92277344 43.98035156 -41.57421875 44.68359375 C-42.13713623 45.29775146 -42.70005371 45.91190918 -43.2800293 46.54467773 C-45.34022671 48.28787671 -46.30118269 48.79405079 -49 49 C-51.49282089 48.444433 -53.83107945 47.8164987 -56.2578125 47.05078125 C-56.96090546 46.83689255 -57.66399841 46.62300385 -58.38839722 46.40263367 C-59.87758561 45.94742815 -61.36528521 45.48732745 -62.8515625 45.02270508 C-65.09312344 44.322458 -67.33887894 43.6374504 -69.5859375 42.95507812 C-77.19823424 40.62340364 -84.68134203 38.15946353 -92 35 C-89.94273588 32.94273588 -88.77600285 32.38213812 -86.10913086 31.37451172 C-85.29921692 31.06538345 -84.48930298 30.75625519 -83.65484619 30.4377594 C-82.32329498 29.93876381 -82.32329498 29.93876381 -80.96484375 29.4296875 C-80.03452332 29.07587509 -79.10420288 28.72206268 -78.14569092 28.35752869 C-75.07812333 27.19179919 -72.00786172 26.03334797 -68.9375 24.875 C-64.66043268 23.25399781 -60.3847549 21.62935315 -56.109375 20.00390625 C-55.02174362 19.59087753 -53.93411224 19.17784882 -52.81352234 18.75230408 C-45.46515044 15.95596143 -38.1398066 13.1056678 -30.828125 10.21484375 C-29.87776871 9.83986755 -28.92741241 9.46489136 -27.94825745 9.07855225 C-24.29458894 7.63630999 -20.64120425 6.1936014 -16.99362183 4.73602295 C-14.5021879 3.74065624 -12.0073553 2.75430264 -9.51171875 1.76953125 C-8.40567291 1.32250099 -8.40567291 1.32250099 -7.27728271 0.86643982 C-2.22717547 -1.11358774 -2.22717547 -1.11358774 0 0 Z " fill="#F8F8F8" transform="translate(293,74)"/>
<path d="M0 0 C3.65640661 1.35278449 6.81478498 3.00469139 10.10546875 5.08984375 C11.08128906 5.70456543 12.05710937 6.31928711 13.0625 6.95263672 C14.09375 7.6076416 15.125 8.26264648 16.1875 8.9375 C18.33669333 10.29383471 20.48643891 11.64929472 22.63671875 13.00390625 C23.7045459 13.67695801 24.77237305 14.35000977 25.87255859 15.04345703 C31.14957059 18.3447821 36.47578219 21.5654401 41.81713867 24.76147461 C43.56085052 25.81479313 45.28329495 26.90321621 47 28 C47 28.33 47 28.66 47 29 C30.32576273 29.07389047 13.669803 28.87266326 -3 28.5 C-5.25129705 28.4515885 -7.50259914 28.40341054 -9.75390625 28.35546875 C-15.16933146 28.23965364 -20.58468881 28.12102341 -26 28 C-26 26 -26 26 -23.81762695 23.69262695 C-22.88781006 22.80406006 -21.95799316 21.91549316 -21 21 C-20.17653076 20.17653076 -19.35306152 19.35306152 -18.50463867 18.50463867 C-12.33642578 12.33642578 -6.16821289 6.16821289 0 0 Z " fill="#F4F4F4" transform="translate(303,77)"/>
<path d="M0 0 C1.93786085 0.47770523 3.87527674 0.95721571 5.8125 1.4375 C7.43091797 1.83775391 7.43091797 1.83775391 9.08203125 2.24609375 C11.0740843 2.76077412 13.04811524 3.34937175 15 4 C16 7 16 7 14.5625 10.1875 C13.7890625 11.5796875 13.7890625 11.5796875 13 13 C8.11950075 9.0580583 3.9419417 4.88049925 0 0 Z " fill="#F2F2F2" transform="translate(51,72)"/>
<path d="M0 0 C3.67056937 1.47797262 5.41085783 3.47615477 7.75 6.625 C8.67039062 7.85089844 8.67039062 7.85089844 9.609375 9.1015625 C10.29773438 10.04128906 10.29773438 10.04128906 11 11 C10.01 11.495 10.01 11.495 9 12 C6.92803369 11.26821134 4.8891448 10.44100997 2.875 9.5625 C1.77929688 9.08941406 0.68359375 8.61632812 -0.4453125 8.12890625 C-1.28835938 7.75636719 -2.13140625 7.38382812 -3 7 C-1.68 5.35 -0.36 3.7 1 2 C0.67 1.34 0.34 0.68 0 0 Z " fill="#F0F0F0" transform="translate(261,317)"/>
<path d="M0 0 C0 3 0 3 -2 6 C-1.69159401 8.15274948 -1.69159401 8.15274948 -1 10 C-1.99 10 -2.98 10 -4 10 C-6.00334686 11.31461399 -6.00334686 11.31461399 -8 13 C-11.66666667 16 -11.66666667 16 -15 16 C-14.41992188 15.43152344 -13.83984375 14.86304688 -13.2421875 14.27734375 C-8.59383097 9.68268111 -4.17366549 5.029802 0 0 Z " fill="#1A1A1A" transform="translate(215,155)"/>
<path d="M0 0 C1.98 1.65 3.96 3.3 6 5 C5.67 5.66 5.34 6.32 5 7 C1 7 1 7 -2 6 C-1.49396008 3.83125748 -1.00016187 2.00032373 0 0 Z " fill="#0D0D0D" transform="translate(163,184)"/>
<path d="M0 0 C4.455 0.99 4.455 0.99 9 2 C9 3.65 9 5.3 9 7 C6 7 6 7 4.39453125 5.46875 C2.9296875 3.64583333 1.46484375 1.82291667 0 0 Z " fill="#ECECEC" transform="translate(51,72)"/>
<path d="M0 0 C-3.465 2.97 -3.465 2.97 -7 6 C-7.99 4.68 -8.98 3.36 -10 2 C-8.71211992 1.46987262 -7.41953322 0.9511671 -6.125 0.4375 C-5.40570313 0.14746094 -4.68640625 -0.14257812 -3.9453125 -0.44140625 C-2 -1 -2 -1 0 0 Z " fill="#E5E5E5" transform="translate(293,74)"/>
<path d="M0 0 C0.85851562 0.36931641 0.85851562 0.36931641 1.734375 0.74609375 C0.744375 0.74609375 -0.245625 0.74609375 -1.265625 0.74609375 C-1.4203125 1.70515625 -1.4203125 1.70515625 -1.578125 2.68359375 C-1.805 3.36421875 -2.031875 4.04484375 -2.265625 4.74609375 C-3.255625 5.07609375 -4.245625 5.40609375 -5.265625 5.74609375 C-6.93272846 7.24594984 -6.93272846 7.24594984 -8.265625 8.74609375 C-8.925625 8.41609375 -9.585625 8.08609375 -10.265625 7.74609375 C-9.03163437 6.37732259 -7.77781877 5.02640209 -6.515625 3.68359375 C-5.81953125 2.92949219 -5.1234375 2.17539063 -4.40625 1.3984375 C-2.265625 -0.25390625 -2.265625 -0.25390625 0 0 Z " fill="#F1F1F1" transform="translate(209.265625,179.25390625)"/>
<path d="M0 0 C0.99 0.33 1.98 0.66 3 1 C2.67 1.99 2.34 2.98 2 4 C0.66923011 4.34342449 -0.66431979 4.67619874 -2 5 C-2.99 6.485 -2.99 6.485 -4 8 C-4.99 7.67 -5.98 7.34 -7 7 C-4.69 4.69 -2.38 2.38 0 0 Z " fill="#111111" transform="translate(223,147)"/>
<path d="M0 0 C1.32 0.66 2.64 1.32 4 2 C2.02 3.32 0.04 4.64 -2 6 C-2 2 -2 2 0 0 Z " fill="#F3F3F3" transform="translate(304,78)"/>
<path d="M0 0 C0 3.69418201 -1.28179295 5.77836178 -3 9 C-3.99 8.34 -4.98 7.68 -6 7 C-4.02 4.69 -2.04 2.38 0 0 Z " fill="#DFDFDF" transform="translate(198,188)"/>
<path d="M0 0 C1.9375 0.8125 1.9375 0.8125 4 2 C4.33 2.99 4.66 3.98 5 5 C2.69 4.34 0.38 3.68 -2 3 C-1.34 2.67 -0.68 2.34 0 2 C0 1.34 0 0.68 0 0 Z " fill="#D8D8D8" transform="translate(267,324)"/>
</svg>
